<svg viewBox="0 0 120 120" xmlns="http://www.w3.org/2000/svg">
  <defs>
    <linearGradient id="jhopeGrad" x1="0%" y1="0%" x2="100%" y2="100%">
      <stop offset="0%" style="stop-color:#7c3db8;stop-opacity:1" />
      <stop offset="100%" style="stop-color:#4a0e8f;stop-opacity:1" />
    </linearGradient>
  </defs>
  <circle cx="60" cy="60" r="58" fill="url(#jhopeGrad)" stroke="#ff8c00" stroke-width="2"/>
  <!-- Head -->
  <circle cx="60" cy="38" r="18" fill="#d4a574"/>
  <!-- Hair - bright, swept up -->
  <path d="M40 30 Q44 10 60 8 Q76 10 80 30 L80 24 Q74 6 60 4 Q46 6 40 24 Z" fill="#ff8c00"/>
  <!-- Body - bright outfit -->
  <path d="M42 56 Q42 52 48 50 L60 48 L72 50 Q78 52 78 56 L80 82 Q80 86 75 86 L45 86 Q40 86 40 82 Z" fill="#2d0a4e"/>
  <!-- Big smile -->
  <path d="M50 40 Q60 50 70 40" fill="none" stroke="#333" stroke-width="1.5" stroke-linecap="round"/>
  <!-- Eyes - happy crescents -->
  <path d="M48 34 Q52 30 56 34" fill="none" stroke="#1a0a0a" stroke-width="2" stroke-linecap="round"/>
  <path d="M64 34 Q68 30 72 34" fill="none" stroke="#1a0a0a" stroke-width="2" stroke-linecap="round"/>
  <!-- Sun/energy symbol -->
  <circle cx="85" cy="18" r="6" fill="#ff8c00" opacity="0.6"/>
  <!-- Label -->
  <text x="60" y="108" font-family="Arial" font-size="13" font-weight="bold" fill="#ff8c00" text-anchor="middle">J-HOPE</text>
</svg>
