<svg viewBox="0 0 120 120" xmlns="http://www.w3.org/2000/svg">
  <defs>
    <linearGradient id="jkGrad" x1="0%" y1="0%" x2="100%" y2="100%">
      <stop offset="0%" style="stop-color:#7c3db8;stop-opacity:1" />
      <stop offset="100%" style="stop-color:#3B0764;stop-opacity:1" />
    </linearGradient>
  </defs>
  <circle cx="60" cy="60" r="58" fill="url(#jkGrad)" stroke="#c0c0c0" stroke-width="2"/>
  <!-- Head -->
  <circle cx="60" cy="38" r="18" fill="#d4a574"/>
  <!-- Hair - long dark, parted -->
  <path d="M38 36 Q40 10 60 8 Q80 10 82 36 L82 28 Q78 6 60 4 Q42 6 38 28 Z" fill="#0a0a0a"/>
  <path d="M38 36 L36 42" stroke="#0a0a0a" stroke-width="4" stroke-linecap="round"/>
  <path d="M82 36 L84 42" stroke="#0a0a0a" stroke-width="4" stroke-linecap="round"/>
  <!-- Body - athletic -->
  <path d="M42 56 Q42 52 48 50 L60 48 L72 50 Q78 52 78 56 L80 82 Q80 86 75 86 L45 86 Q40 86 40 82 Z" fill="#1a1a2e"/>
  <!-- Eyebrow piercing -->
  <circle cx="53" cy="30" r="1.5" fill="#c0c0c0"/>
  <!-- Eyes - determined -->
  <ellipse cx="52" cy="36" rx="2.5" ry="3" fill="#1a0a0a"/>
  <ellipse cx="68" cy="36" rx="2.5" ry="3" fill="#1a0a0a"/>
  <!-- Lip ring hint -->
  <circle cx="62" cy="44" r="1" fill="#c0c0c0"/>
  <!-- Label -->
  <text x="60" y="108" font-family="Arial" font-size="11" font-weight="bold" fill="#c0c0c0" text-anchor="middle">JUNGKOOK</text>
</svg>
