<svg viewBox="0 0 120 120" xmlns="http://www.w3.org/2000/svg">
  <defs>
    <linearGradient id="rmGrad" x1="0%" y1="0%" x2="100%" y2="100%">
      <stop offset="0%" style="stop-color:#6B21A8;stop-opacity:1" />
      <stop offset="100%" style="stop-color:#3B0764;stop-opacity:1" />
    </linearGradient>
  </defs>
  <circle cx="60" cy="60" r="58" fill="url(#rmGrad)" stroke="#ffd700" stroke-width="2"/>
  <!-- Head -->
  <circle cx="60" cy="38" r="18" fill="#d4a574"/>
  <!-- Hair -->
  <path d="M42 32 Q45 18 60 16 Q75 18 78 32 L78 28 Q75 15 60 13 Q45 15 42 28 Z" fill="#2d1810"/>
  <!-- Body -->
  <path d="M42 56 Q42 52 48 50 L60 48 L72 50 Q78 52 78 56 L80 80 Q80 85 75 85 L45 85 Q40 85 40 80 Z" fill="#1a1a2e"/>
  <!-- Glasses -->
  <circle cx="52" cy="38" r="6" fill="none" stroke="#ffd700" stroke-width="1.5"/>
  <circle cx="68" cy="38" r="6" fill="none" stroke="#ffd700" stroke-width="1.5"/>
  <line x1="58" y1="38" x2="62" y2="38" stroke="#ffd700" stroke-width="1.5"/>
  <!-- Label -->
  <text x="60" y="105" font-family="Arial" font-size="16" font-weight="bold" fill="#ffd700" text-anchor="middle">RM</text>
</svg>
