<svg viewBox="0 0 120 120" xmlns="http://www.w3.org/2000/svg">
  <defs>
    <linearGradient id="vGrad" x1="0%" y1="0%" x2="100%" y2="100%">
      <stop offset="0%" style="stop-color:#4a0e8f;stop-opacity:1" />
      <stop offset="100%" style="stop-color:#6B21A8;stop-opacity:1" />
    </linearGradient>
  </defs>
  <circle cx="60" cy="60" r="58" fill="url(#vGrad)" stroke="#8b4513" stroke-width="2"/>
  <!-- Head -->
  <circle cx="60" cy="38" r="18" fill="#d4a574"/>
  <!-- Hair - dark curly/wavy -->
  <path d="M38 34 Q40 10 60 8 Q80 10 82 34 L82 26 Q78 6 60 4 Q42 6 38 26 Z" fill="#2d1810"/>
  <path d="M38 34 Q36 30 38 26" fill="#2d1810"/>
  <path d="M82 34 Q84 30 82 26" fill="#2d1810"/>
  <!-- Body - artistic/boxy jacket -->
  <path d="M42 56 Q42 52 48 50 L60 48 L72 50 Q78 52 78 56 L80 82 Q80 86 75 86 L45 86 Q40 86 40 82 Z" fill="#3d2760"/>
  <!-- Beret/artist hat -->
  <ellipse cx="60" cy="20" rx="20" ry="6" fill="#8b4513"/>
  <!-- Eyes - deep, artistic -->
  <ellipse cx="52" cy="36" rx="3" ry="3.5" fill="#1a0a0a"/>
  <ellipse cx="68" cy="36" rx="3" ry="3.5" fill="#1a0a0a"/>
  <!-- Label -->
  <text x="60" y="108" font-family="Arial" font-size="18" font-weight="bold" fill="#ffd700" text-anchor="middle">V</text>
</svg>
